<svg width="370" height="148" viewBox="0 0 370 148" fill="none" xmlns="http://www.w3.org/2000/svg">
<rect width="370" height="132" rx="66" fill="white"/>
<path d="M41.68 66.2C41.68 62.904 42.416 59.96 43.888 57.368C45.392 54.744 47.424 52.712 49.984 51.272C52.576 49.8 55.472 49.064 58.672 49.064C62.416 49.064 65.696 50.024 68.512 51.944C71.328 53.864 73.296 56.52 74.416 59.912H66.688C65.92 58.312 64.832 57.112 63.424 56.312C62.048 55.512 60.448 55.112 58.624 55.112C56.672 55.112 54.928 55.576 53.392 56.504C51.888 57.4 50.704 58.68 49.84 60.344C49.008 62.008 48.592 63.96 48.592 66.2C48.592 68.408 49.008 70.36 49.84 72.056C50.704 73.72 51.888 75.016 53.392 75.944C54.928 76.84 56.672 77.288 58.624 77.288C60.448 77.288 62.048 76.888 63.424 76.088C64.832 75.256 65.92 74.04 66.688 72.44H74.416C73.296 75.864 71.328 78.536 68.512 80.456C65.728 82.344 62.448 83.288 58.672 83.288C55.472 83.288 52.576 82.568 49.984 81.128C47.424 79.656 45.392 77.624 43.888 75.032C42.416 72.44 41.68 69.496 41.68 66.2ZM91.9638 83.432C89.4038 83.432 87.0998 82.872 85.0518 81.752C83.0038 80.6 81.3878 78.984 80.2038 76.904C79.0518 74.824 78.4758 72.424 78.4758 69.704C78.4758 66.984 79.0678 64.584 80.2518 62.504C81.4678 60.424 83.1158 58.824 85.1958 57.704C87.2758 56.552 89.5958 55.976 92.1558 55.976C94.7158 55.976 97.0358 56.552 99.1158 57.704C101.196 58.824 102.828 60.424 104.012 62.504C105.228 64.584 105.836 66.984 105.836 69.704C105.836 72.424 105.212 74.824 103.964 76.904C102.748 78.984 101.084 80.6 98.9718 81.752C96.8918 82.872 94.5558 83.432 91.9638 83.432ZM91.9638 77.576C93.1798 77.576 94.3158 77.288 95.3718 76.712C96.4598 76.104 97.3238 75.208 97.9638 74.024C98.6038 72.84 98.9238 71.4 98.9238 69.704C98.9238 67.176 98.2518 65.24 96.9078 63.896C95.5958 62.52 93.9798 61.832 92.0598 61.832C90.1398 61.832 88.5238 62.52 87.2118 63.896C85.9318 65.24 85.2918 67.176 85.2918 69.704C85.2918 72.232 85.9158 74.184 87.1638 75.56C88.4438 76.904 90.0438 77.576 91.9638 77.576ZM125.501 56.024C128.669 56.024 131.229 57.032 133.181 59.048C135.133 61.032 136.109 63.816 136.109 67.4V83H129.389V68.312C129.389 66.2 128.861 64.584 127.805 63.464C126.749 62.312 125.309 61.736 123.485 61.736C121.629 61.736 120.157 62.312 119.069 63.464C118.013 64.584 117.485 66.2 117.485 68.312V83H110.765V56.408H117.485V59.72C118.381 58.568 119.517 57.672 120.893 57.032C122.301 56.36 123.837 56.024 125.501 56.024ZM150.324 61.928V74.792C150.324 75.688 150.532 76.344 150.948 76.76C151.396 77.144 152.132 77.336 153.156 77.336H156.276V83H152.052C146.388 83 143.556 80.248 143.556 74.744V61.928H140.388V56.408H143.556V49.832H150.324V56.408H156.276V61.928H150.324ZM159.381 69.608C159.381 66.92 159.909 64.536 160.965 62.456C162.053 60.376 163.509 58.776 165.333 57.656C167.189 56.536 169.253 55.976 171.525 55.976C173.509 55.976 175.237 56.376 176.709 57.176C178.213 57.976 179.413 58.984 180.309 60.2V56.408H187.077V83H180.309V79.112C179.445 80.36 178.245 81.4 176.709 82.232C175.205 83.032 173.461 83.432 171.477 83.432C169.237 83.432 167.189 82.856 165.333 81.704C163.509 80.552 162.053 78.936 160.965 76.856C159.909 74.744 159.381 72.328 159.381 69.608ZM180.309 69.704C180.309 68.072 179.989 66.68 179.349 65.528C178.709 64.344 177.845 63.448 176.757 62.84C175.669 62.2 174.501 61.88 173.253 61.88C172.005 61.88 170.853 62.184 169.797 62.792C168.741 63.4 167.877 64.296 167.205 65.48C166.565 66.632 166.245 68.008 166.245 69.608C166.245 71.208 166.565 72.616 167.205 73.832C167.877 75.016 168.741 75.928 169.797 76.568C170.885 77.208 172.037 77.528 173.253 77.528C174.501 77.528 175.669 77.224 176.757 76.616C177.845 75.976 178.709 75.08 179.349 73.928C179.989 72.744 180.309 71.336 180.309 69.704ZM191.912 69.704C191.912 66.952 192.472 64.552 193.592 62.504C194.712 60.424 196.264 58.824 198.248 57.704C200.232 56.552 202.504 55.976 205.064 55.976C208.36 55.976 211.08 56.808 213.224 58.472C215.4 60.104 216.856 62.408 217.592 65.384H210.344C209.96 64.232 209.304 63.336 208.376 62.696C207.48 62.024 206.36 61.688 205.016 61.688C203.096 61.688 201.576 62.392 200.456 63.8C199.336 65.176 198.776 67.144 198.776 69.704C198.776 72.232 199.336 74.2 200.456 75.608C201.576 76.984 203.096 77.672 205.016 77.672C207.736 77.672 209.512 76.456 210.344 74.024H217.592C216.856 76.904 215.4 79.192 213.224 80.888C211.048 82.584 208.328 83.432 205.064 83.432C202.504 83.432 200.232 82.872 198.248 81.752C196.264 80.6 194.712 79 193.592 76.952C192.472 74.872 191.912 72.456 191.912 69.704ZM230.339 61.928V74.792C230.339 75.688 230.547 76.344 230.963 76.76C231.411 77.144 232.147 77.336 233.171 77.336H236.291V83H232.067C226.403 83 223.571 80.248 223.571 74.744V61.928H220.403V56.408H223.571V49.832H230.339V56.408H236.291V61.928H230.339ZM285.586 56.024C288.85 56.024 291.474 57.032 293.458 59.048C295.474 61.032 296.482 63.816 296.482 67.4V83H289.762V68.312C289.762 66.232 289.234 64.648 288.178 63.56C287.122 62.44 285.682 61.88 283.858 61.88C282.034 61.88 280.578 62.44 279.49 63.56C278.434 64.648 277.906 66.232 277.906 68.312V83H271.186V68.312C271.186 66.232 270.658 64.648 269.602 63.56C268.546 62.44 267.106 61.88 265.282 61.88C263.426 61.88 261.954 62.44 260.866 63.56C259.81 64.648 259.282 66.232 259.282 68.312V83H252.562V56.408H259.282V59.624C260.146 58.504 261.25 57.624 262.594 56.984C263.97 56.344 265.474 56.024 267.106 56.024C269.186 56.024 271.042 56.472 272.674 57.368C274.306 58.232 275.57 59.48 276.466 61.112C277.33 59.576 278.578 58.344 280.21 57.416C281.874 56.488 283.666 56.024 285.586 56.024ZM327.579 69.128C327.579 70.088 327.515 70.952 327.387 71.72H307.947C308.107 73.64 308.779 75.144 309.963 76.232C311.147 77.32 312.603 77.864 314.331 77.864C316.827 77.864 318.603 76.792 319.659 74.648H326.907C326.139 77.208 324.667 79.32 322.491 80.984C320.315 82.616 317.643 83.432 314.475 83.432C311.915 83.432 309.611 82.872 307.563 81.752C305.547 80.6 303.963 78.984 302.811 76.904C301.691 74.824 301.131 72.424 301.131 69.704C301.131 66.952 301.691 64.536 302.811 62.456C303.931 60.376 305.499 58.776 307.515 57.656C309.531 56.536 311.851 55.976 314.475 55.976C317.003 55.976 319.259 56.52 321.243 57.608C323.259 58.696 324.811 60.248 325.899 62.264C327.019 64.248 327.579 66.536 327.579 69.128ZM320.619 67.208C320.587 65.48 319.963 64.104 318.747 63.08C317.531 62.024 316.043 61.496 314.283 61.496C312.619 61.496 311.211 62.008 310.059 63.032C308.939 64.024 308.251 65.416 307.995 67.208H320.619Z" fill="black"/>
<path d="M155 147.5C138.6 136.7 139.167 116.667 141.5 108C132 96.1667 112.6 79.6 111 108C109.4 136.4 139.667 146.167 155 147.5Z" fill="white"/>
</svg>
